<?xml version="1.0" encoding="UTF-8" standalone="no"?>
<!-- Created with Inkscape (http://www.inkscape.org/) -->

<svg
   width="1024"
   height="768"
   viewBox="0 0 270.93333 203.2"
   version="1.1"
   id="svg1"
   xml:space="preserve"
   inkscape:version="1.4.2 (2aeb623e1d, 2025-05-12)"
   sodipodi:docname="logo_ml5w3sl4b.svg"
   inkscape:export-filename="../b2ed9e8a/logo_ml5w3sl4b.png"
   inkscape:export-xdpi="96"
   inkscape:export-ydpi="96"
   xmlns:inkscape="http://www.inkscape.org/namespaces/inkscape"
   xmlns:sodipodi="http://sodipodi.sourceforge.net/DTD/sodipodi-0.dtd"
   xmlns:xlink="http://www.w3.org/1999/xlink"
   xmlns="http://www.w3.org/2000/svg"
   xmlns:svg="http://www.w3.org/2000/svg"><sodipodi:namedview
     id="namedview1"
     pagecolor="#ffffff"
     bordercolor="#000000"
     borderopacity="0.25"
     inkscape:showpageshadow="2"
     inkscape:pageopacity="0.0"
     inkscape:pagecheckerboard="0"
     inkscape:deskcolor="#d1d1d1"
     inkscape:document-units="mm"
     inkscape:zoom="0.81486058"
     inkscape:cx="506.22157"
     inkscape:cy="380.43318"
     inkscape:window-width="1004"
     inkscape:window-height="679"
     inkscape:window-x="26"
     inkscape:window-y="23"
     inkscape:window-maximized="0"
     inkscape:current-layer="layer2"
     showguides="true" /><defs
     id="defs1"><linearGradient
       id="linearGradient10"
       inkscape:collect="always"><stop
         style="stop-color:#442178;stop-opacity:1"
         offset="0"
         id="stop10" /><stop
         style="stop-color:#ab37c8;stop-opacity:1"
         offset="0.5"
         id="stop12" /><stop
         style="stop-color:#442178;stop-opacity:1"
         offset="1"
         id="stop11" /></linearGradient><linearGradient
       id="linearGradient8"
       inkscape:collect="always"><stop
         style="stop-color:#0000ff;stop-opacity:1"
         offset="0"
         id="stop8" /><stop
         style="stop-color:#14a5c4;stop-opacity:0.91764706"
         offset="1"
         id="stop9" /></linearGradient><linearGradient
       id="linearGradient6"
       inkscape:collect="always"><stop
         style="stop-color:#f46a0e;stop-opacity:1"
         offset="0"
         id="stop6" /><stop
         style="stop-color:#0da7ca;stop-opacity:0.95686275"
         offset="1"
         id="stop7" /></linearGradient><linearGradient
       id="linearGradient4"
       inkscape:collect="always"><stop
         style="stop-color:#0000ff;stop-opacity:1"
         offset="0"
         id="stop4" /><stop
         style="stop-color:#00aad4;stop-opacity:1"
         offset="1"
         id="stop5" /></linearGradient><linearGradient
       id="linearGradient2"
       inkscape:collect="always"><stop
         style="stop-color:#00aad4;stop-opacity:0.90980393"
         offset="0"
         id="stop2" /><stop
         style="stop-color:#ff6600;stop-opacity:1"
         offset="1"
         id="stop3" /></linearGradient><linearGradient
       inkscape:collect="always"
       xlink:href="#linearGradient2"
       id="linearGradient3"
       x1="137.36914"
       y1="44.250004"
       x2="64.350784"
       y2="44.250004"
       gradientUnits="userSpaceOnUse" /><linearGradient
       inkscape:collect="always"
       xlink:href="#linearGradient4"
       id="linearGradient5"
       x1="64.019341"
       y1="52.363152"
       x2="134.08746"
       y2="52.363152"
       gradientUnits="userSpaceOnUse" /><linearGradient
       inkscape:collect="always"
       xlink:href="#linearGradient6"
       id="linearGradient7"
       x1="64.350784"
       y1="47.357292"
       x2="135.15646"
       y2="47.357292"
       gradientUnits="userSpaceOnUse" /><linearGradient
       inkscape:collect="always"
       xlink:href="#linearGradient8"
       id="linearGradient9"
       x1="64.756905"
       y1="56.946423"
       x2="133.3499"
       y2="52.521069"
       gradientUnits="userSpaceOnUse" /><linearGradient
       inkscape:collect="always"
       xlink:href="#linearGradient10"
       id="linearGradient11"
       x1="61.692558"
       y1="100.65628"
       x2="206.18303"
       y2="100.65628"
       gradientUnits="userSpaceOnUse" /></defs><g
     inkscape:groupmode="layer"
     id="layer2"
     inkscape:label="vetor"><g
       id="g32"
       transform="matrix(-0.23510136,0.37219913,-0.37219913,-0.23510136,205.65277,77.558371)"
       inkscape:label="norte"><path
         id="path29"
         style="display:inline;fill:#ff6600;fill-opacity:1;stroke:none;stroke-width:0.247066"
         inkscape:label="borda_interna"
         d="m 124.53447,11.097095 c -0.19313,-0.0088 -0.40313,-0.0053 -0.63303,0.01344 L 58.57499,52.656303 c -0.567236,1.01528 -1.393085,1.911565 -0.166398,3.754809 l 21.651897,17.162365 c 4.750394,5.186425 4.289655,4.460289 10.976037,7.065398 L 134.61525,52.728951 c 1.07901,-5.132585 1.81552,-6.877616 -0.47054,-13.363459 l -7.09515,-26.92791 c -0.64378,-0.592856 -1.16316,-1.278741 -2.51509,-1.340487 z m -0.003,5.247519 6.46201,21.623481 L 80.103343,70.247778 64.000706,55.708684 Z"
         sodipodi:nodetypes="sccccccccsccccc" /><path
         style="display:inline;fill:#d45500;stroke:#d4aa00;stroke-width:0.8;stroke-dasharray:none"
         d="m 104.21609,66.482676 11.76106,-7.677361"
         id="path30"
         inkscape:label="ligth" /><path
         style="display:inline;fill:#a28776;fill-opacity:1;stroke:none;stroke-width:0.254251"
         d="M 81.164778,71.950879 132.15605,39.589101 c 0.44926,1.621624 1.47725,3.03899 -0.50866,5.520087 L 87.865109,73.169407 c -2.54204,1.522548 -4.761883,1.031369 -6.700331,-1.218528 z"
         id="path31"
         sodipodi:nodetypes="ccccc"
         inkscape:label="azul_baixo" /><path
         style="display:inline;fill:#8b645a;fill-opacity:1;stroke:none;stroke-width:0.282958"
         d="m 63.118365,55.397981 61.311275,-39.211499 0.44523,1.374487 -60.65629,39.321124 z"
         id="path32"
         sodipodi:nodetypes="ccccc"
         inkscape:label="branco" /></g><g
       id="g23"
       transform="matrix(0.23510138,0.37219913,0.37219913,-0.23510138,62.965664,77.558159)"
       inkscape:label="sul"><path
         id="path20"
         style="display:inline;fill:#0000ff;fill-opacity:1;stroke:none;stroke-width:0.247066"
         inkscape:label="borda_interna"
         d="m 125.38227,12.439262 c -0.19313,-0.0088 -0.40313,-0.0053 -0.63303,0.01344 L 59.422778,53.99847 c -0.567236,1.01528 -1.393085,1.911565 -0.166398,3.754809 l 21.651897,17.162365 c 4.750394,5.186425 4.289655,4.460289 10.976037,7.065398 L 135.46305,54.071118 c 1.07901,-5.132585 1.81552,-6.877616 -0.47054,-13.363459 l -7.09515,-26.92791 c -0.64378,-0.592856 -1.16316,-1.278741 -2.51509,-1.340487 z m -0.003,5.247519 6.46201,21.623481 L 80.951131,71.589945 64.848494,57.050851 Z"
         sodipodi:nodetypes="sccccccccsccccc" /><path
         style="display:inline;fill:#d45500;stroke:#d4aa00;stroke-width:0.8;stroke-dasharray:none"
         d="m 104.21609,66.482676 11.76106,-7.677361"
         id="path21"
         inkscape:label="ligth" /><path
         style="display:inline;fill:#a28776;fill-opacity:1;stroke:none;stroke-width:0.254251"
         d="M 81.164778,71.950879 132.15605,39.589101 c 0.44926,1.621624 1.47725,3.03899 -0.50866,5.520087 L 87.865109,73.169407 c -2.54204,1.522548 -4.761883,1.031369 -6.700331,-1.218528 z"
         id="path22"
         sodipodi:nodetypes="ccccc"
         inkscape:label="azul_baixo" /><path
         style="display:inline;fill:#8b645a;fill-opacity:1;stroke:none;stroke-width:0.282958"
         d="m 63.118365,55.397981 61.311275,-39.211499 0.44523,1.374487 -60.65629,39.321124 z"
         id="path23"
         sodipodi:nodetypes="ccccc"
         inkscape:label="branco" /></g><g
       id="g1"
       inkscape:label="suldoeste"
       style="display:inline"
       transform="matrix(0.44023272,0,0,0.44023272,75.395148,58.77184)"><path
         id="path6"
         style="display:inline;fill:url(#linearGradient5);fill-opacity:1;stroke:none;stroke-width:0.247066"
         inkscape:label="borda_interna"
         d="m 120.90838,15.265218 c -0.19313,-0.0088 -0.40313,-0.0053 -0.63303,0.01344 L 64.089628,51.050631 c -0.567236,1.01528 -1.393085,1.911565 -0.166398,3.754809 l 16.985047,20.110204 c 4.750394,5.186425 4.289655,4.460289 10.976037,7.065398 L 135.46305,54.071118 c 1.07901,-5.132585 1.81552,-6.877616 -0.47054,-13.363459 L 123.42347,16.605705 c -0.64378,-0.592856 -1.16316,-1.278741 -2.51509,-1.340487 z m 1.33894,4.399732 9.59373,19.645312 L 80.951131,71.589945 67.532829,55.355278 Z"
         sodipodi:nodetypes="sccccccccsccccc" /><path
         style="display:inline;fill:#d45500;stroke:#d4aa00;stroke-width:0.8;stroke-dasharray:none"
         d="m 104.21609,66.482676 11.76106,-7.677361"
         id="path2"
         inkscape:label="ligth" /><path
         style="display:inline;fill:#a28776;fill-opacity:1;stroke:none;stroke-width:0.254251"
         d="M 81.164778,71.950879 132.15605,39.589101 c 0.44926,1.621624 1.47725,3.03899 -0.50866,5.520087 L 87.865109,73.169407 c -2.54204,1.522548 -4.761883,1.031369 -6.700331,-1.218528 z"
         id="path3"
         sodipodi:nodetypes="ccccc"
         inkscape:label="azul_baixo" /><path
         style="display:inline;fill:#8b645a;fill-opacity:1;stroke:none;stroke-width:0.269427"
         d="m 65.990273,53.583926 55.567457,-35.583389 0.47346,1.356659 -54.951563,35.717703 z"
         id="path4"
         sodipodi:nodetypes="ccccc"
         inkscape:label="branco" /></g><g
       id="g8"
       inkscape:transform-center-x="-15.452761"
       inkscape:transform-center-y="3.3659487"
       transform="matrix(-0.44023272,0,0,0.44023272,194.24983,58.77184)"
       inkscape:label="noroeste"
       style="display:inline"><path
         id="path1"
         style="display:inline;fill:url(#linearGradient3);fill-opacity:1;stroke:none;stroke-width:0.247066"
         inkscape:label="borda_interna"
         d="m 120.90838,15.265218 c -0.19313,-0.0088 -0.40313,-0.0053 -0.63303,0.01344 L 64.089628,51.050631 c -0.567236,1.01528 -1.393085,1.911565 -0.166398,3.754809 l 16.985047,20.110204 c 4.750394,5.186425 4.289655,4.460289 10.976037,7.065398 L 135.46305,54.071118 c 1.07901,-5.132585 1.81552,-6.877616 -0.47054,-13.363459 L 123.42347,16.605705 c -0.64378,-0.592856 -1.16316,-1.278741 -2.51509,-1.340487 z m 1.33894,4.399732 9.59373,19.645312 L 80.951131,71.589945 67.532829,55.355278 Z"
         sodipodi:nodetypes="sccccccccsccccc" /><path
         style="display:inline;fill:#d45500;stroke:#d4aa00;stroke-width:0.8;stroke-dasharray:none"
         d="m 104.21609,66.482676 11.76106,-7.677361"
         id="path5"
         inkscape:label="ligth" /><path
         style="display:inline;fill:#a28776;fill-opacity:1;stroke:none;stroke-width:0.254251"
         d="M 81.164778,71.950879 132.15605,39.589101 c 0.44926,1.621624 1.47725,3.03899 -0.50866,5.520087 L 87.865109,73.169407 c -2.54204,1.522548 -4.761883,1.031369 -6.700331,-1.218528 z"
         id="path7"
         sodipodi:nodetypes="ccccc"
         inkscape:label="azul_baixo" /><path
         style="display:inline;fill:#8b645a;fill-opacity:1;stroke:none;stroke-width:0.269427"
         d="m 65.990273,53.583926 55.567457,-35.583389 0.47346,1.356659 -54.951563,35.717703 z"
         id="path8"
         sodipodi:nodetypes="ccccc"
         inkscape:label="branco" /></g><g
       id="g15"
       transform="matrix(0.44023272,0,0,-0.44023272,75.395148,149.10419)"
       inkscape:label="suldeste"
       style="display:inline"><path
         id="path12"
         style="display:inline;fill:url(#linearGradient9);fill-opacity:1;stroke:none;stroke-width:0.247066"
         inkscape:label="borda_interna"
         d="m 120.90838,15.265218 c -0.19313,-0.0088 -0.40313,-0.0053 -0.63303,0.01344 L 64.089628,51.050631 c -0.567236,1.01528 -1.393085,1.911565 -0.166398,3.754809 l 16.985047,20.110204 c 4.750394,5.186425 4.289655,4.460289 10.976037,7.065398 L 135.46305,54.071118 c 1.07901,-5.132585 1.81552,-6.877616 -0.47054,-13.363459 L 123.42347,16.605705 c -0.64378,-0.592856 -1.16316,-1.278741 -2.51509,-1.340487 z m 1.33894,4.399732 9.59373,19.645312 L 80.951131,71.589945 67.532829,55.355278 Z"
         sodipodi:nodetypes="sccccccccsccccc" /><path
         style="display:inline;fill:#d45500;stroke:#d4aa00;stroke-width:0.8;stroke-dasharray:none"
         d="m 104.21609,66.482676 11.76106,-7.677361"
         id="path13"
         inkscape:label="ligth" /><path
         style="display:inline;fill:#a28776;fill-opacity:1;stroke:none;stroke-width:0.254251"
         d="M 81.164778,71.950879 132.15605,39.589101 c 0.44926,1.621624 1.47725,3.03899 -0.50866,5.520087 L 87.865109,73.169407 c -2.54204,1.522548 -4.761883,1.031369 -6.700331,-1.218528 z"
         id="path14"
         sodipodi:nodetypes="ccccc"
         inkscape:label="azul_baixo" /><path
         style="display:inline;fill:#8b645a;fill-opacity:1;stroke:none;stroke-width:0.269427"
         d="m 65.990273,53.583926 55.567457,-35.583389 0.47346,1.356659 -54.951563,35.717703 z"
         id="path15"
         sodipodi:nodetypes="ccccc"
         inkscape:label="branco" /></g><g
       id="g19"
       inkscape:transform-center-x="-15.452761"
       inkscape:transform-center-y="-3.3659527"
       transform="matrix(-0.44023272,0,0,-0.44023272,194.24983,149.10381)"
       inkscape:label="nordeste"
       style="display:inline"><path
         id="path16"
         style="display:inline;fill:url(#linearGradient7);fill-opacity:1;stroke:none;stroke-width:0.247066"
         inkscape:label="borda_interna"
         d="m 120.90838,15.265218 c -0.19313,-0.0088 -0.40313,-0.0053 -0.63303,0.01344 L 64.089628,51.050631 c -0.567236,1.01528 -1.393085,1.911565 -0.166398,3.754809 l 16.985047,20.110204 c 4.750394,5.186425 4.289655,4.460289 10.976037,7.065398 L 135.46305,54.071118 c 1.07901,-5.132585 1.81552,-6.877616 -0.47054,-13.363459 L 123.42347,16.605705 c -0.64378,-0.592856 -1.16316,-1.278741 -2.51509,-1.340487 z m 1.33894,4.399732 9.59373,19.645312 L 80.951131,71.589945 67.532829,55.355278 Z"
         sodipodi:nodetypes="sccccccccsccccc" /><path
         style="display:inline;fill:#d45500;stroke:#d4aa00;stroke-width:0.8;stroke-dasharray:none"
         d="m 104.21609,66.482676 11.76106,-7.677361"
         id="path17"
         inkscape:label="ligth" /><path
         style="display:inline;fill:#a28776;fill-opacity:1;stroke:none;stroke-width:0.254251"
         d="M 81.164778,71.950879 132.15605,39.589101 c 0.44926,1.621624 1.47725,3.03899 -0.50866,5.520087 L 87.865109,73.169407 c -2.54204,1.522548 -4.761883,1.031369 -6.700331,-1.218528 z"
         id="path18"
         sodipodi:nodetypes="ccccc"
         inkscape:label="azul_baixo" /><path
         style="display:inline;fill:#8b645a;fill-opacity:1;stroke:none;stroke-width:0.269427"
         d="m 65.990273,53.583926 55.567457,-35.583389 0.47346,1.356659 -54.951563,35.717703 z"
         id="path19"
         sodipodi:nodetypes="ccccc"
         inkscape:label="branco" /></g><path
       style="fill:#ffffff;fill-opacity:1;stroke:#56443f;stroke-width:1.13376;stroke-dasharray:none;stroke-opacity:1"
       d="m 84.818271,79.01217 22.676609,16.372253 53.69649,0.425255 24.60201,-17.435388 v 48.69151 l -24.60201,-16.79751 h -53.69649 l -23.104469,15.947 z"
       id="path28"
       inkscape:label="tarja" /><path
       style="fill:#ffffff;fill-opacity:1;stroke:none;stroke-width:1.26404;stroke-dasharray:none;stroke-opacity:1"
       d="m 77.085066,75.6023 26.694994,19.60798 61.05885,0.454971 28.12564,-20.240207 0.356,54.709276 -29.01395,-19.9104 -60.89323,0.45384 -26.506306,18.25192 z"
       id="path33"
       sodipodi:nodetypes="ccccccccc"
       inkscape:label="sobre_tarja" /><text
       xml:space="preserve"
       style="font-size:16.9333px;font-family:Sans;-inkscape-font-specification:Sans;text-align:start;writing-mode:lr-tb;direction:ltr;text-anchor:start;fill:url(#linearGradient11);fill-opacity:1;stroke:#220b28;stroke-width:0.24;stroke-dasharray:none;stroke-opacity:1"
       x="60.807495"
       y="108.48314"
       id="text34"
       inkscape:label="ml5"><tspan
         sodipodi:role="line"
         id="tspan34"
         style="font-style:normal;font-variant:normal;font-weight:normal;font-stretch:normal;font-size:16.9333px;font-family:REVAMPED;-inkscape-font-specification:REVAMPED;fill:url(#linearGradient11);fill-opacity:1;stroke:#220b28;stroke-width:0.24;stroke-dasharray:none;stroke-opacity:1"
         x="60.807495"
         y="108.48314"><tspan
   style="font-size:25.4px;stroke:#220b28;stroke-width:0.24;stroke-dasharray:none;stroke-opacity:1;fill:url(#linearGradient11);fill-opacity:1"
   id="tspan35">M</tspan>L5W3SL4<tspan
   style="font-size:25.4px;stroke:#220b28;stroke-width:0.24;stroke-dasharray:none;stroke-opacity:1;fill:url(#linearGradient11);fill-opacity:1"
   id="tspan36">B</tspan></tspan></text></g></svg>
